<svg width="330" height="34" viewBox="0 0 330 34" fill="none" xmlns="http://www.w3.org/2000/svg">
<g clip-path="url(#clip0_1661_14162)">
<path d="M116 28H214L209 34H121L116 28Z" fill="url(#paint0_linear_1661_14162)"/>
<path d="M152.693 33H151.907L151.594 32.187H150.164L149.868 33H149.102L150.496 29.4209H151.26L152.693 33ZM151.362 31.584L150.869 30.2559L150.386 31.584H151.362Z" fill="white"/>
<path d="M153.081 29.4209H154.512C154.795 29.4209 155.006 29.4331 155.144 29.4575C155.284 29.4803 155.409 29.5291 155.518 29.604C155.628 29.6789 155.72 29.779 155.793 29.9043C155.867 30.028 155.903 30.1672 155.903 30.3218C155.903 30.4894 155.858 30.6432 155.767 30.7832C155.677 30.9232 155.555 31.0282 155.4 31.0981C155.618 31.1616 155.786 31.2699 155.903 31.4229C156.021 31.5758 156.079 31.7557 156.079 31.9624C156.079 32.1252 156.041 32.2839 155.964 32.4385C155.889 32.5915 155.786 32.7144 155.654 32.8071C155.524 32.8983 155.363 32.9544 155.171 32.9756C155.05 32.9886 154.76 32.9967 154.299 33H153.081V29.4209ZM153.804 30.0166V30.8442H154.277C154.559 30.8442 154.734 30.8402 154.802 30.832C154.926 30.8174 155.023 30.7751 155.093 30.7051C155.164 30.6335 155.2 30.5399 155.2 30.4243C155.2 30.3136 155.169 30.2241 155.107 30.1558C155.047 30.0858 154.957 30.0435 154.836 30.0288C154.765 30.0207 154.559 30.0166 154.219 30.0166H153.804ZM153.804 31.4399V32.397H154.473C154.733 32.397 154.898 32.3896 154.968 32.375C155.076 32.3555 155.163 32.3083 155.229 32.2334C155.298 32.1569 155.332 32.0552 155.332 31.9282C155.332 31.8208 155.306 31.7297 155.254 31.6548C155.202 31.5799 155.126 31.5254 155.027 31.4912C154.929 31.457 154.716 31.4399 154.387 31.4399H153.804Z" fill="white"/>
<path d="M156.545 31.2324C156.545 30.8678 156.6 30.5618 156.709 30.3145C156.79 30.1322 156.901 29.9686 157.041 29.8237C157.183 29.6789 157.337 29.5715 157.505 29.5015C157.728 29.4071 157.985 29.3599 158.276 29.3599C158.804 29.3599 159.225 29.5234 159.541 29.8506C159.858 30.1777 160.017 30.6326 160.017 31.2153C160.017 31.7931 159.86 32.2456 159.546 32.5728C159.232 32.8983 158.812 33.061 158.286 33.061C157.754 33.061 157.331 32.8991 157.017 32.5752C156.702 32.2497 156.545 31.8021 156.545 31.2324ZM157.29 31.208C157.29 31.6133 157.384 31.9209 157.571 32.1309C157.758 32.3392 157.996 32.4434 158.284 32.4434C158.572 32.4434 158.808 32.34 158.992 32.1333C159.177 31.925 159.27 31.6133 159.27 31.1982C159.27 30.7881 159.18 30.4821 158.999 30.2803C158.82 30.0785 158.582 29.9775 158.284 29.9775C157.986 29.9775 157.746 30.0801 157.563 30.2852C157.381 30.4886 157.29 30.7962 157.29 31.208Z" fill="white"/>
<path d="M160.579 29.4209H161.301V31.3594C161.301 31.667 161.31 31.8664 161.328 31.9575C161.359 32.104 161.432 32.222 161.548 32.3115C161.665 32.3994 161.825 32.4434 162.026 32.4434C162.231 32.4434 162.386 32.4019 162.49 32.3188C162.594 32.2342 162.657 32.1309 162.678 32.0088C162.699 31.8867 162.71 31.6841 162.71 31.4009V29.4209H163.433V31.3008C163.433 31.7305 163.413 32.034 163.374 32.2114C163.335 32.3888 163.263 32.5386 163.157 32.6606C163.053 32.7827 162.913 32.8804 162.737 32.9536C162.561 33.0252 162.332 33.061 162.048 33.061C161.707 33.061 161.447 33.022 161.27 32.9438C161.094 32.8641 160.955 32.7616 160.852 32.6362C160.75 32.5093 160.682 32.3766 160.649 32.2383C160.602 32.0332 160.579 31.7305 160.579 31.3301V29.4209Z" fill="white"/>
<path d="M165.002 33V30.0264H163.94V29.4209H166.785V30.0264H165.725V33H165.002Z" fill="white"/>
<path d="M168.64 29.4209H169.363V31.3594C169.363 31.667 169.372 31.8664 169.39 31.9575C169.421 32.104 169.494 32.222 169.609 32.3115C169.727 32.3994 169.886 32.4434 170.088 32.4434C170.293 32.4434 170.448 32.4019 170.552 32.3188C170.656 32.2342 170.719 32.1309 170.74 32.0088C170.761 31.8867 170.771 31.6841 170.771 31.4009V29.4209H171.494V31.3008C171.494 31.7305 171.475 32.034 171.436 32.2114C171.396 32.3888 171.324 32.5386 171.218 32.6606C171.114 32.7827 170.974 32.8804 170.798 32.9536C170.623 33.0252 170.393 33.061 170.11 33.061C169.768 33.061 169.508 33.022 169.331 32.9438C169.155 32.8641 169.016 32.7616 168.914 32.6362C168.811 32.5093 168.743 32.3766 168.711 32.2383C168.664 32.0332 168.64 31.7305 168.64 31.3301V29.4209Z" fill="white"/>
<path d="M172.075 31.8354L172.778 31.7671C172.821 32.0031 172.906 32.1764 173.035 32.2871C173.165 32.3978 173.34 32.4531 173.56 32.4531C173.792 32.4531 173.967 32.4043 174.084 32.3066C174.203 32.2074 174.263 32.0918 174.263 31.96C174.263 31.8753 174.237 31.8037 174.187 31.7451C174.138 31.6849 174.052 31.6328 173.928 31.5889C173.844 31.5596 173.651 31.5075 173.35 31.4326C172.962 31.3366 172.69 31.2186 172.534 31.0786C172.314 30.8817 172.205 30.6416 172.205 30.3584C172.205 30.1761 172.256 30.006 172.358 29.8481C172.463 29.6886 172.611 29.5674 172.805 29.4844C173 29.4014 173.236 29.3599 173.511 29.3599C173.96 29.3599 174.298 29.4583 174.524 29.6553C174.752 29.8522 174.871 30.1151 174.883 30.4438L174.16 30.4756C174.129 30.2917 174.062 30.1598 173.96 30.0801C173.859 29.9987 173.707 29.958 173.503 29.958C173.293 29.958 173.129 30.0011 173.01 30.0874C172.934 30.1427 172.896 30.2168 172.896 30.3096C172.896 30.3942 172.931 30.4666 173.003 30.5269C173.094 30.6034 173.315 30.6831 173.667 30.7661C174.019 30.8491 174.278 30.9354 174.446 31.0249C174.615 31.1128 174.747 31.234 174.841 31.3887C174.937 31.5417 174.985 31.7313 174.985 31.9575C174.985 32.1626 174.928 32.3547 174.814 32.5337C174.701 32.7127 174.539 32.8462 174.331 32.9341C174.123 33.0203 173.863 33.0635 173.552 33.0635C173.1 33.0635 172.752 32.9593 172.51 32.751C172.267 32.541 172.122 32.2358 172.075 31.8354Z" fill="white"/>
<path d="M175.591 29.4209H176.912C177.209 29.4209 177.437 29.4437 177.593 29.4893C177.803 29.5511 177.983 29.661 178.132 29.8188C178.282 29.9767 178.396 30.1704 178.474 30.3999C178.552 30.6278 178.591 30.9093 178.591 31.2446C178.591 31.5392 178.555 31.7931 178.481 32.0063C178.392 32.2668 178.264 32.4775 178.098 32.6387C177.973 32.7607 177.804 32.856 177.59 32.9243C177.431 32.9748 177.218 33 176.951 33H175.591V29.4209ZM176.313 30.0264V32.397H176.853C177.055 32.397 177.201 32.3856 177.29 32.3628C177.407 32.3335 177.504 32.2839 177.581 32.2139C177.659 32.1439 177.722 32.0291 177.771 31.8696C177.82 31.7085 177.844 31.4896 177.844 31.2129C177.844 30.9362 177.82 30.7238 177.771 30.5757C177.722 30.4276 177.654 30.312 177.566 30.229C177.478 30.146 177.367 30.0898 177.231 30.0605C177.131 30.0378 176.933 30.0264 176.638 30.0264H176.313Z" fill="white"/>
<path d="M180.012 33V30.0264H178.95V29.4209H181.794V30.0264H180.735V33H180.012Z" fill="white"/>
<path d="M216 28H218L213 34H211L216 28Z" fill="url(#paint1_linear_1661_14162)"/>
<path d="M111 28H113L118 34H116L111 28Z" fill="url(#paint2_linear_1661_14162)"/>
<path d="M220 29L221 28H330L329 29H220Z" fill="url(#paint3_linear_1661_14162)"/>
<path d="M221 28H223L218 34H216L221 28Z" fill="url(#paint4_linear_1661_14162)"/>
<path d="M110 29L109 28H0L1 29H110Z" fill="url(#paint5_linear_1661_14162)"/>
<path d="M109 28H107L112 34H114L109 28Z" fill="url(#paint6_linear_1661_14162)"/>
<path d="M109.39 8.492H115.792C115.954 7.89067 116.093 7.27467 116.21 6.644H110.094V3.19H121.468C122.04 2.178 122.517 1.11467 122.898 0H127.078C126.741 1.1 126.323 2.16333 125.824 3.19H128.618V6.644H120.676C120.574 7.27467 120.456 7.89067 120.324 8.492H129.322V11.99H119.378C118.836 13.6327 118.176 15.224 117.398 16.764C116.768 17.9667 116.034 19.118 115.198 20.218H109.324C110.424 18.986 111.436 17.6953 112.36 16.346C113.27 14.9673 114.04 13.5153 114.67 11.99H109.39V8.492ZM124.086 20.218C122.414 17.9153 120.948 15.488 119.686 12.936H124.174C124.79 14.1093 125.472 15.2387 126.22 16.324C127.144 17.6587 128.134 18.9567 129.19 20.218H124.086ZM112.624 2.684C112.36 1.77467 112.023 0.88 111.612 0H116.342C116.782 0.865334 117.164 1.76 117.486 2.684H112.624Z" fill="#5E657A"/>
<path d="M133.436 7.524H141.576V3.806H134.426V0.264001H152.686V3.806H145.932V7.524H153.698V11.066H145.932V14.74C145.932 15.84 145.852 16.9253 145.69 17.996C145.617 18.48 145.507 18.9567 145.36 19.426C145.258 19.69 145.14 19.954 145.008 20.218H139.75C140.381 19.5727 140.843 18.832 141.136 17.996C141.444 16.94 141.591 15.8547 141.576 14.74V11.066H133.436V7.524Z" fill="#5E657A"/>
<path d="M171.694 1.606V12.958C171.68 13.75 171.577 14.5273 171.386 15.29C171.137 16.1847 170.704 16.9693 170.088 17.644C169.443 18.2747 168.68 18.744 167.8 19.052C166.744 19.3747 165.666 19.536 164.566 19.536C163.452 19.536 162.366 19.3747 161.31 19.052C160.43 18.744 159.668 18.2747 159.022 17.644C158.406 16.9693 157.974 16.1847 157.724 15.29C157.519 14.5273 157.424 13.75 157.438 12.958V1.606H161.838V13.178C161.824 13.97 162.073 14.652 162.586 15.224C163.129 15.752 163.789 16.016 164.566 16.016C165.314 16.016 165.96 15.752 166.502 15.224C167.016 14.652 167.272 13.97 167.272 13.178V1.606H171.694Z" fill="#5E657A"/>
<path d="M181.396 19.536C179.094 19.5507 176.96 18.964 174.994 17.776L176.138 14.476C176.842 14.916 177.583 15.2607 178.36 15.51C179.182 15.774 180.032 15.906 180.912 15.906C181.411 15.9207 181.858 15.7813 182.254 15.488C182.577 15.2093 182.753 14.8573 182.782 14.432C182.768 13.904 182.548 13.4713 182.122 13.134C181.506 12.6793 180.832 12.32 180.098 12.056C179.306 11.7773 178.551 11.418 177.832 10.978C177.26 10.6113 176.762 10.164 176.336 9.636C176.058 9.26933 175.838 8.866 175.676 8.426C175.456 7.79533 175.354 7.14267 175.368 6.468C175.368 5.70533 175.515 4.972 175.808 4.268C176.102 3.59333 176.534 3.014 177.106 2.53C177.737 2.01667 178.441 1.65733 179.218 1.452C179.908 1.276 180.612 1.18067 181.33 1.166C183.105 1.166 184.799 1.55467 186.412 2.332L185.51 5.588C184.337 5.08933 183.12 4.83267 181.858 4.818C181.345 4.818 180.876 4.94267 180.45 5.192C180.069 5.42667 179.871 5.75667 179.856 6.182C179.856 6.402 179.908 6.60733 180.01 6.798C180.142 7.018 180.311 7.20867 180.516 7.37C181.103 7.78067 181.748 8.096 182.452 8.316C183.332 8.63867 184.176 9.03467 184.982 9.504C185.437 9.79734 185.855 10.1273 186.236 10.494C186.662 10.9633 186.977 11.4913 187.182 12.078C187.373 12.7233 187.468 13.376 187.468 14.036C187.454 14.6813 187.358 15.3047 187.182 15.906C186.933 16.6393 186.537 17.2847 185.994 17.842C185.422 18.3847 184.762 18.7953 184.014 19.074C183.164 19.382 182.291 19.536 181.396 19.536Z" fill="#5E657A"/>
<path d="M196.938 19.096H190.778V1.606H196.938C197.95 1.62067 198.954 1.74533 199.952 1.98C200.524 2.14133 201.074 2.354 201.602 2.618C202.086 2.882 202.54 3.19733 202.966 3.564C203.362 3.94533 203.714 4.36333 204.022 4.818C204.33 5.31667 204.586 5.83733 204.792 6.38C204.997 6.98133 205.151 7.59733 205.254 8.228C205.356 8.94667 205.415 9.658 205.43 10.362C205.415 11.418 205.298 12.4593 205.078 13.486C204.916 14.0727 204.711 14.6373 204.462 15.18C204.198 15.6787 203.89 16.148 203.538 16.588C203.171 16.9987 202.768 17.3653 202.328 17.688C201.844 17.9813 201.338 18.238 200.81 18.458C200.223 18.6633 199.622 18.8173 199.006 18.92C198.316 19.0227 197.627 19.0813 196.938 19.096ZM195.178 15.576H197.642C198.14 15.576 198.61 15.4513 199.05 15.202C199.504 14.894 199.878 14.5053 200.172 14.036C200.494 13.464 200.722 12.8553 200.854 12.21C200.956 11.6087 201.015 11 201.03 10.384C201.015 9.78267 200.956 9.18133 200.854 8.58C200.722 7.93467 200.494 7.31867 200.172 6.732C199.878 6.248 199.504 5.852 199.05 5.544C198.61 5.28 198.14 5.14067 197.642 5.126H195.178V15.576Z" fill="#5E657A"/>
<path d="M212.705 19.096V5.126H208.283V1.628H221.505V5.126H217.105V19.096H212.705Z" fill="#5E657A"/>
</g>
<defs>
<linearGradient id="paint0_linear_1661_14162" x1="164.495" y1="28" x2="164.495" y2="34" gradientUnits="userSpaceOnUse">
<stop stop-color="#EBC58D"/>
<stop offset="1" stop-color="#D8A871"/>
</linearGradient>
<linearGradient id="paint1_linear_1661_14162" x1="214.464" y1="28" x2="214.464" y2="34" gradientUnits="userSpaceOnUse">
<stop stop-color="#EBC58D"/>
<stop offset="1" stop-color="#D8A871"/>
</linearGradient>
<linearGradient id="paint2_linear_1661_14162" x1="109.464" y1="28" x2="109.464" y2="34" gradientUnits="userSpaceOnUse">
<stop stop-color="#EBC58D"/>
<stop offset="1" stop-color="#D8A871"/>
</linearGradient>
<linearGradient id="paint3_linear_1661_14162" x1="220" y1="31.5361" x2="329" y2="31.5398" gradientUnits="userSpaceOnUse">
<stop stop-color="#EBC58D"/>
<stop offset="1" stop-color="#EBC58D" stop-opacity="0"/>
</linearGradient>
<linearGradient id="paint4_linear_1661_14162" x1="219.464" y1="28" x2="219.464" y2="34" gradientUnits="userSpaceOnUse">
<stop stop-color="#EBC58D"/>
<stop offset="1" stop-color="#D8A871"/>
</linearGradient>
<linearGradient id="paint5_linear_1661_14162" x1="110" y1="31.5361" x2="1.00001" y2="31.5398" gradientUnits="userSpaceOnUse">
<stop stop-color="#EBC58D"/>
<stop offset="1" stop-color="#EBC58D" stop-opacity="0"/>
</linearGradient>
<linearGradient id="paint6_linear_1661_14162" x1="110.536" y1="28" x2="110.536" y2="34" gradientUnits="userSpaceOnUse">
<stop stop-color="#EBC58D"/>
<stop offset="1" stop-color="#D8A871"/>
</linearGradient>
<clipPath id="clip0_1661_14162">
<rect width="330" height="34" fill="white"/>
</clipPath>
</defs>
</svg>
