<svg width="313" height="27" viewBox="0 0 313 27" fill="none" xmlns="http://www.w3.org/2000/svg">
<path d="M100.124 10.5149H98.1734L103.05 16.485H105L100.124 10.5149Z" fill="url(#paint0_linear_1016_1469)"/>
<path d="M95.2233 11.5099L95.248 10.5149L3.94775 10.5149L4.92299 11.5099L95.2233 11.5099Z" fill="url(#paint1_linear_1016_1469)"/>
<path d="M95.2479 10.5149H93.2974L98.1736 16.485H100.124L95.2479 10.5149Z" fill="url(#paint2_linear_1016_1469)"/>
<path d="M188.78 15.86V5.828H184.292V15.86H181.146V2.616H191.97V15.86H188.78ZM188.186 22.24C187.922 20.9787 187.607 19.7467 187.24 18.544C186.785 19.82 186.213 21.052 185.524 22.24H180.794C181.909 20.876 182.84 19.402 183.588 17.818C183.955 17.0113 184.248 16.19 184.468 15.354C184.659 14.6353 184.769 13.9093 184.798 13.176V6.532H188.208V13.198C188.193 14.2393 188.076 15.2587 187.856 16.256H190.188C190.995 18.2067 191.647 20.2013 192.146 22.24H188.186ZM195.05 22.24C195.725 21.4773 196.223 20.6193 196.546 19.666C196.883 18.61 197.052 17.5173 197.052 16.388V2H200.682V16.388C200.682 17.4733 200.601 18.5513 200.44 19.622C200.308 20.5167 200.059 21.3893 199.692 22.24H195.05ZM192.85 18.148V3.32H196.15V18.148H192.85Z" fill="#5E657A"/>
<path d="M177.978 22.218H172.368V19.094C171.899 20.194 171.327 21.2353 170.652 22.218H163.502C163.399 20.6927 163.26 19.1747 163.084 17.664C162.864 18.5 162.622 19.3067 162.358 20.084C162.123 20.8173 161.845 21.5287 161.522 22.218H157.606C158.941 19.5633 159.806 16.762 160.202 13.814H157.892V10.69H160.334V7.654H158.2V4.574H160.334V2H163.942V4.574H166.208V7.654H163.942V10.69H166.384V13.814H163.81C163.766 14.2393 163.707 14.6573 163.634 15.068H165.702C166.127 17.312 166.501 19.5633 166.824 21.822C167.953 20.414 168.885 18.8813 169.618 17.224C170.263 15.7427 170.601 14.188 170.63 12.56V6.158H173.688V12.736C173.673 13.616 173.593 14.4887 173.446 15.354H174.524V5.366H169.86V15.662H166.692V2.33H177.67V15.662H175.294V19.138H177.978V22.218Z" fill="#5E657A"/>
<path d="M144.274 22.218L144.428 21.778H134.814C135.503 18.214 136.053 14.6207 136.464 10.998H134.946V7.764H144.296V10.998H140.116C139.94 13.5353 139.669 16.0507 139.302 18.544H141.084C140.967 16.476 140.849 14.408 140.732 12.34H143.988C144.267 15.288 144.479 18.2287 144.626 21.162C145.154 19.4313 145.543 17.6567 145.792 15.838C146.071 13.506 146.203 11.1667 146.188 8.82V7.236H144.406V3.892H146.188V2H150.016V3.892H154.79V16.014C154.775 17.2313 154.673 18.434 154.482 19.622C154.335 20.502 154.101 21.3673 153.778 22.218H149.334C149.95 21.294 150.397 20.304 150.676 19.248C150.925 18.192 151.05 17.114 151.05 16.014V7.236H150.016V8.82C150.031 11.372 149.899 13.9093 149.62 16.432C149.4 18.3973 148.989 20.326 148.388 22.218H144.274ZM135.232 2.858H143.922V6.048H135.232V2.858Z" fill="#5E657A"/>
<path d="M118.336 2.66L132.218 2V5.322L127.224 5.564V7.588H132.218V10.91H127.224V12.516H131.844V22.218H118.512V12.516H123.154V10.91H118.336V7.588H123.154V5.762L118.336 5.982V2.66ZM112 22.218C112.704 19.226 113.269 16.2047 113.694 13.154H117.94C117.705 16.2193 117.251 19.2407 116.576 22.218H112ZM113.672 6.818C113.159 5.278 112.601 3.74533 112 2.22H116.158C116.862 3.73067 117.5 5.26333 118.072 6.818H113.672ZM113.672 12.142C113.159 10.602 112.601 9.06933 112 7.544H116.158C116.862 9.05467 117.5 10.5873 118.072 12.142H113.672ZM122.472 15.926V18.72H127.84V15.926H122.472Z" fill="#5E657A"/>
<path d="M212.876 10.5149H214.827L209.95 16.485H208L212.876 10.5149Z" fill="url(#paint3_linear_1016_1469)"/>
<path d="M217.777 11.5099L217.752 10.5149L309.052 10.5149L308.077 11.5099L217.777 11.5099Z" fill="url(#paint4_linear_1016_1469)"/>
<path d="M217.752 10.5149H219.703L214.826 16.485H212.876L217.752 10.5149Z" fill="url(#paint5_linear_1016_1469)"/>
<defs>
<linearGradient id="paint0_linear_1016_1469" x1="101.622" y1="10.5149" x2="101.622" y2="16.485" gradientUnits="userSpaceOnUse">
<stop stop-color="#EBC58D"/>
<stop offset="1" stop-color="#D8A871"/>
</linearGradient>
<linearGradient id="paint1_linear_1016_1469" x1="96.2232" y1="14.0333" x2="-10.0771" y2="14.0369" gradientUnits="userSpaceOnUse">
<stop stop-color="#EBC58D"/>
<stop offset="1" stop-color="#EBC58D" stop-opacity="0"/>
</linearGradient>
<linearGradient id="paint2_linear_1016_1469" x1="96.7459" y1="10.5149" x2="96.7459" y2="16.485" gradientUnits="userSpaceOnUse">
<stop stop-color="#EBC58D"/>
<stop offset="1" stop-color="#D8A871"/>
</linearGradient>
<linearGradient id="paint3_linear_1016_1469" x1="211.378" y1="10.5149" x2="211.378" y2="16.485" gradientUnits="userSpaceOnUse">
<stop stop-color="#EBC58D"/>
<stop offset="1" stop-color="#D8A871"/>
</linearGradient>
<linearGradient id="paint4_linear_1016_1469" x1="216.777" y1="14.0333" x2="323.077" y2="14.0369" gradientUnits="userSpaceOnUse">
<stop stop-color="#EBC58D"/>
<stop offset="1" stop-color="#EBC58D" stop-opacity="0"/>
</linearGradient>
<linearGradient id="paint5_linear_1016_1469" x1="216.254" y1="10.5149" x2="216.254" y2="16.485" gradientUnits="userSpaceOnUse">
<stop stop-color="#EBC58D"/>
<stop offset="1" stop-color="#D8A871"/>
</linearGradient>
</defs>
</svg>
