<svg width="301" height="20" viewBox="0 0 301 20" fill="none" xmlns="http://www.w3.org/2000/svg">
<g opacity="0.5">
<path d="M100.124 7.01514H98.1734L103.05 12.9853H105L100.124 7.01514Z" fill="url(#paint0_linear_15322_73306)"/>
<path d="M95.2233 8.01025L95.248 7.01523L3.94775 7.01523L4.92299 8.01025L95.2233 8.01025Z" fill="url(#paint1_linear_15322_73306)"/>
<path d="M95.2479 7.01514H93.2974L98.1736 12.9853H100.124L95.2479 7.01514Z" fill="url(#paint2_linear_15322_73306)"/>
</g>
<path d="M117.232 1.199L129.221 0.629V3.498L124.908 3.707V5.455H129.221V8.324H124.908V9.711H128.898V18.09H117.384V9.711H121.393V8.324H117.232V5.455H121.393V3.878L117.232 4.068V1.199ZM111.76 18.09C112.368 15.506 112.856 12.8967 113.223 10.262H116.89C116.687 12.9093 116.295 15.5187 115.712 18.09H111.76ZM113.204 4.79C112.761 3.46 112.279 2.13633 111.76 0.819H115.351C115.959 2.12367 116.51 3.44733 117.004 4.79H113.204ZM113.204 9.388C112.761 8.058 112.279 6.73433 111.76 5.417H115.351C115.959 6.72167 116.51 8.04533 117.004 9.388H113.204ZM120.804 12.656V15.069H125.44V12.656H120.804ZM139.633 18.071L139.766 17.691H131.463C132.058 14.613 132.533 11.5097 132.888 8.381H131.577V5.588H139.652V8.381H136.042C135.89 10.5723 135.656 12.7447 135.339 14.898H136.878C136.777 13.112 136.675 11.326 136.574 9.54H139.386C139.627 12.086 139.81 14.6257 139.937 17.159C140.393 15.6643 140.729 14.1317 140.944 12.561C141.185 10.547 141.299 8.52667 141.286 6.5V5.132H139.747V2.244H141.286V0.609999H144.592V2.244H148.715V12.713C148.702 13.7643 148.614 14.803 148.449 15.829C148.322 16.589 148.12 17.3363 147.841 18.071H144.003C144.535 17.273 144.921 16.418 145.162 15.506C145.377 14.594 145.485 13.663 145.485 12.713V5.132H144.592V6.5C144.605 8.704 144.491 10.8953 144.25 13.074C144.06 14.7713 143.705 16.437 143.186 18.071H139.633ZM131.824 1.351H139.329V4.106H131.824V1.351ZM156.752 2.32H158.367C158.202 1.75 158 1.18633 157.759 0.629H161.35C161.603 1.17367 161.812 1.73733 161.977 2.32H163.535C163.763 1.77533 163.966 1.21167 164.143 0.629H167.734C167.544 1.21167 167.335 1.77533 167.107 2.32H168.57V5.113H164.542V6.956H168.152V9.711H164.542V11.535H168.741V14.385H164.542V18.071H160.97V14.385H156.581V11.535H160.97V9.711H157.322V6.956H160.97V5.113H156.752V2.32ZM151.28 4.22H155.802V15.145H156.98V18.071H152.458V6.88H151.28V4.22ZM152.344 3.631C152.179 2.61767 151.951 1.617 151.66 0.629H154.909C155.226 1.617 155.504 2.61767 155.745 3.631H152.344ZM183.922 18.071C184.213 17.7417 184.435 17.3743 184.587 16.969C184.726 16.551 184.815 16.1267 184.853 15.696H181.452V18.071H178.26V8.514H188.064V15.107C188.064 15.6517 188.02 16.19 187.931 16.722C187.868 17.1907 187.735 17.6403 187.532 18.071H183.922ZM178.127 1.237H181.566V0.629H184.853V1.237H188.311V3.308H184.853V3.669H188.102V5.702H184.853V6.082H188.501V8.115H177.899V6.082H181.566V5.702H178.317V3.669H181.566V3.308H178.127V1.237ZM173.073 18.071V0.629H175.79V18.071H173.073ZM170.907 14.157C171.097 10.3697 171.211 6.56967 171.249 2.757H172.788C172.763 6.56967 172.693 10.3697 172.579 14.157H170.907ZM176.208 13.454C176.183 9.89467 176.138 6.329 176.075 2.757H177.5C177.589 6.329 177.652 9.89467 177.69 13.454H176.208ZM181.452 10.775V11.155H184.872V10.775H181.452ZM181.452 13.245V13.606H184.872V13.245H181.452Z" fill="white"/>
<path d="M117.232 1.199L129.221 0.629V3.498L124.908 3.707V5.455H129.221V8.324H124.908V9.711H128.898V18.09H117.384V9.711H121.393V8.324H117.232V5.455H121.393V3.878L117.232 4.068V1.199ZM111.76 18.09C112.368 15.506 112.856 12.8967 113.223 10.262H116.89C116.687 12.9093 116.295 15.5187 115.712 18.09H111.76ZM113.204 4.79C112.761 3.46 112.279 2.13633 111.76 0.819H115.351C115.959 2.12367 116.51 3.44733 117.004 4.79H113.204ZM113.204 9.388C112.761 8.058 112.279 6.73433 111.76 5.417H115.351C115.959 6.72167 116.51 8.04533 117.004 9.388H113.204ZM120.804 12.656V15.069H125.44V12.656H120.804ZM139.633 18.071L139.766 17.691H131.463C132.058 14.613 132.533 11.5097 132.888 8.381H131.577V5.588H139.652V8.381H136.042C135.89 10.5723 135.656 12.7447 135.339 14.898H136.878C136.777 13.112 136.675 11.326 136.574 9.54H139.386C139.627 12.086 139.81 14.6257 139.937 17.159C140.393 15.6643 140.729 14.1317 140.944 12.561C141.185 10.547 141.299 8.52667 141.286 6.5V5.132H139.747V2.244H141.286V0.609999H144.592V2.244H148.715V12.713C148.702 13.7643 148.614 14.803 148.449 15.829C148.322 16.589 148.12 17.3363 147.841 18.071H144.003C144.535 17.273 144.921 16.418 145.162 15.506C145.377 14.594 145.485 13.663 145.485 12.713V5.132H144.592V6.5C144.605 8.704 144.491 10.8953 144.25 13.074C144.06 14.7713 143.705 16.437 143.186 18.071H139.633ZM131.824 1.351H139.329V4.106H131.824V1.351ZM156.752 2.32H158.367C158.202 1.75 158 1.18633 157.759 0.629H161.35C161.603 1.17367 161.812 1.73733 161.977 2.32H163.535C163.763 1.77533 163.966 1.21167 164.143 0.629H167.734C167.544 1.21167 167.335 1.77533 167.107 2.32H168.57V5.113H164.542V6.956H168.152V9.711H164.542V11.535H168.741V14.385H164.542V18.071H160.97V14.385H156.581V11.535H160.97V9.711H157.322V6.956H160.97V5.113H156.752V2.32ZM151.28 4.22H155.802V15.145H156.98V18.071H152.458V6.88H151.28V4.22ZM152.344 3.631C152.179 2.61767 151.951 1.617 151.66 0.629H154.909C155.226 1.617 155.504 2.61767 155.745 3.631H152.344ZM183.922 18.071C184.213 17.7417 184.435 17.3743 184.587 16.969C184.726 16.551 184.815 16.1267 184.853 15.696H181.452V18.071H178.26V8.514H188.064V15.107C188.064 15.6517 188.02 16.19 187.931 16.722C187.868 17.1907 187.735 17.6403 187.532 18.071H183.922ZM178.127 1.237H181.566V0.629H184.853V1.237H188.311V3.308H184.853V3.669H188.102V5.702H184.853V6.082H188.501V8.115H177.899V6.082H181.566V5.702H178.317V3.669H181.566V3.308H178.127V1.237ZM173.073 18.071V0.629H175.79V18.071H173.073ZM170.907 14.157C171.097 10.3697 171.211 6.56967 171.249 2.757H172.788C172.763 6.56967 172.693 10.3697 172.579 14.157H170.907ZM176.208 13.454C176.183 9.89467 176.138 6.329 176.075 2.757H177.5C177.589 6.329 177.652 9.89467 177.69 13.454H176.208ZM181.452 10.775V11.155H184.872V10.775H181.452ZM181.452 13.245V13.606H184.872V13.245H181.452Z" fill="url(#paint3_linear_15322_73306)"/>
<g opacity="0.5">
<path d="M200.876 7.01514H202.827L197.95 12.9853H196L200.876 7.01514Z" fill="url(#paint4_linear_15322_73306)"/>
<path d="M205.777 8.01025L205.752 7.01523L297.052 7.01523L296.077 8.01025L205.777 8.01025Z" fill="url(#paint5_linear_15322_73306)"/>
<path d="M205.752 7.01514H207.703L202.826 12.9853H200.876L205.752 7.01514Z" fill="url(#paint6_linear_15322_73306)"/>
</g>
<defs>
<linearGradient id="paint0_linear_15322_73306" x1="101.622" y1="7.01514" x2="101.622" y2="12.9853" gradientUnits="userSpaceOnUse">
<stop stop-color="white"/>
<stop offset="1" stop-color="white" stop-opacity="0"/>
</linearGradient>
<linearGradient id="paint1_linear_15322_73306" x1="96.2232" y1="10.5337" x2="-10.0771" y2="10.5372" gradientUnits="userSpaceOnUse">
<stop stop-color="white"/>
<stop offset="1" stop-color="white" stop-opacity="0"/>
</linearGradient>
<linearGradient id="paint2_linear_15322_73306" x1="96.7459" y1="7.01514" x2="96.7459" y2="12.9853" gradientUnits="userSpaceOnUse">
<stop stop-color="white"/>
<stop offset="1" stop-color="white" stop-opacity="0"/>
</linearGradient>
<linearGradient id="paint3_linear_15322_73306" x1="111" y1="2.86713" x2="121.824" y2="38.9032" gradientUnits="userSpaceOnUse">
<stop stop-color="#DFC191"/>
<stop offset="0.42544" stop-color="#FFF3CE"/>
<stop offset="1" stop-color="#BB9169"/>
</linearGradient>
<linearGradient id="paint4_linear_15322_73306" x1="199.378" y1="7.01514" x2="199.378" y2="12.9853" gradientUnits="userSpaceOnUse">
<stop stop-color="white"/>
<stop offset="1" stop-color="white" stop-opacity="0"/>
</linearGradient>
<linearGradient id="paint5_linear_15322_73306" x1="204.777" y1="10.5337" x2="311.077" y2="10.5372" gradientUnits="userSpaceOnUse">
<stop stop-color="white"/>
<stop offset="1" stop-color="white" stop-opacity="0"/>
</linearGradient>
<linearGradient id="paint6_linear_15322_73306" x1="204.254" y1="7.01514" x2="204.254" y2="12.9853" gradientUnits="userSpaceOnUse">
<stop stop-color="white"/>
<stop offset="1" stop-color="white" stop-opacity="0"/>
</linearGradient>
</defs>
</svg>
