<svg width="313" height="27" viewBox="0 0 313 27" fill="none" xmlns="http://www.w3.org/2000/svg">
<path d="M100.124 10.5149H98.1734L103.05 16.485H105L100.124 10.5149Z" fill="url(#paint0_linear_1016_1495)"/>
<path d="M95.2233 11.5099L95.248 10.5149L3.94775 10.5149L4.92299 11.5099L95.2233 11.5099Z" fill="url(#paint1_linear_1016_1495)"/>
<path d="M95.2479 10.5149H93.2974L98.1736 16.485H100.124L95.2479 10.5149Z" fill="url(#paint2_linear_1016_1495)"/>
<path d="M195.556 22.218C195.893 21.8366 196.15 21.4113 196.326 20.942C196.487 20.458 196.59 19.9666 196.634 19.468H192.696V22.218H189V11.152H200.352V18.786C200.352 19.4166 200.301 20.04 200.198 20.656C200.125 21.1986 199.971 21.7193 199.736 22.218H195.556ZM188.846 2.72597H192.828V2.02197H196.634V2.72597H200.638V5.12397H196.634V5.54197H200.396V7.89597H196.634V8.33597H200.858V10.69H188.582V8.33597H192.828V7.89597H189.066V5.54197H192.828V5.12397H188.846V2.72597ZM182.994 22.218V2.02197H186.14V22.218H182.994ZM180.486 17.686C180.706 13.3006 180.838 8.90064 180.882 4.48597H182.664C182.635 8.90064 182.554 13.3006 182.422 17.686H180.486ZM186.624 16.872C186.595 12.7506 186.543 8.62197 186.47 4.48597H188.12C188.223 8.62197 188.296 12.7506 188.34 16.872H186.624ZM192.696 13.77V14.21H196.656V13.77H192.696ZM192.696 16.63V17.048H196.656V16.63H192.696Z" fill="#5E657A"/>
<path d="M164.096 3.97997H165.966C165.775 3.31997 165.541 2.66731 165.262 2.02197H169.42C169.713 2.65264 169.955 3.30531 170.146 3.97997H171.95C172.214 3.34931 172.449 2.69664 172.654 2.02197H176.812C176.592 2.69664 176.35 3.34931 176.086 3.97997H177.78V7.21397H173.116V9.34797H177.296V12.538H173.116V14.65H177.978V17.95H173.116V22.218H168.98V17.95H163.898V14.65H168.98V12.538H164.756V9.34797H168.98V7.21397H164.096V3.97997ZM157.76 6.17997H162.996V18.83H164.36V22.218H159.124V9.25997H157.76V6.17997ZM158.992 5.49797C158.801 4.32464 158.537 3.16597 158.2 2.02197H161.962C162.329 3.16597 162.651 4.32464 162.93 5.49797H158.992Z" fill="#5E657A"/>
<path d="M144.274 22.218L144.428 21.778H134.814C135.503 18.214 136.053 14.6207 136.464 10.998H134.946V7.764H144.296V10.998H140.116C139.94 13.5353 139.669 16.0507 139.302 18.544H141.084C140.967 16.476 140.849 14.408 140.732 12.34H143.988C144.267 15.288 144.479 18.2287 144.626 21.162C145.154 19.4313 145.543 17.6567 145.792 15.838C146.071 13.506 146.203 11.1667 146.188 8.82V7.236H144.406V3.892H146.188V2H150.016V3.892H154.79V16.014C154.775 17.2313 154.673 18.434 154.482 19.622C154.335 20.502 154.101 21.3673 153.778 22.218H149.334C149.95 21.294 150.397 20.304 150.676 19.248C150.925 18.192 151.05 17.114 151.05 16.014V7.236H150.016V8.82C150.031 11.372 149.899 13.9093 149.62 16.432C149.4 18.3973 148.989 20.326 148.388 22.218H144.274ZM135.232 2.858H143.922V6.048H135.232V2.858Z" fill="#5E657A"/>
<path d="M118.336 2.68197L132.218 2.02197V5.34397L127.224 5.58597V7.60997H132.218V10.932H127.224V12.538H131.844V22.24H118.512V12.538H123.154V10.932H118.336V7.60997H123.154V5.78397L118.336 6.00397V2.68197ZM112 22.24C112.704 19.248 113.269 16.2266 113.694 13.176H117.94C117.705 16.2413 117.251 19.2626 116.576 22.24H112ZM113.672 6.83997C113.159 5.29997 112.601 3.76731 112 2.24197H116.158C116.862 3.75264 117.5 5.28531 118.072 6.83997H113.672ZM113.672 12.164C113.159 10.624 112.601 9.09131 112 7.56597H116.158C116.862 9.07664 117.5 10.6093 118.072 12.164H113.672ZM122.472 15.948V18.742H127.84V15.948H122.472Z" fill="#5E657A"/>
<path d="M212.876 10.5149H214.827L209.95 16.485H208L212.876 10.5149Z" fill="url(#paint3_linear_1016_1495)"/>
<path d="M217.777 11.5099L217.752 10.5149L309.052 10.5149L308.077 11.5099L217.777 11.5099Z" fill="url(#paint4_linear_1016_1495)"/>
<path d="M217.752 10.5149H219.703L214.826 16.485H212.876L217.752 10.5149Z" fill="url(#paint5_linear_1016_1495)"/>
<defs>
<linearGradient id="paint0_linear_1016_1495" x1="101.622" y1="10.5149" x2="101.622" y2="16.485" gradientUnits="userSpaceOnUse">
<stop stop-color="#EBC58D"/>
<stop offset="1" stop-color="#D8A871"/>
</linearGradient>
<linearGradient id="paint1_linear_1016_1495" x1="96.2232" y1="14.0333" x2="-10.0771" y2="14.0369" gradientUnits="userSpaceOnUse">
<stop stop-color="#EBC58D"/>
<stop offset="1" stop-color="#EBC58D" stop-opacity="0"/>
</linearGradient>
<linearGradient id="paint2_linear_1016_1495" x1="96.7459" y1="10.5149" x2="96.7459" y2="16.485" gradientUnits="userSpaceOnUse">
<stop stop-color="#EBC58D"/>
<stop offset="1" stop-color="#D8A871"/>
</linearGradient>
<linearGradient id="paint3_linear_1016_1495" x1="211.378" y1="10.5149" x2="211.378" y2="16.485" gradientUnits="userSpaceOnUse">
<stop stop-color="#EBC58D"/>
<stop offset="1" stop-color="#D8A871"/>
</linearGradient>
<linearGradient id="paint4_linear_1016_1495" x1="216.777" y1="14.0333" x2="323.077" y2="14.0369" gradientUnits="userSpaceOnUse">
<stop stop-color="#EBC58D"/>
<stop offset="1" stop-color="#EBC58D" stop-opacity="0"/>
</linearGradient>
<linearGradient id="paint5_linear_1016_1495" x1="216.254" y1="10.5149" x2="216.254" y2="16.485" gradientUnits="userSpaceOnUse">
<stop stop-color="#EBC58D"/>
<stop offset="1" stop-color="#D8A871"/>
</linearGradient>
</defs>
</svg>
