<svg width="301" height="20" viewBox="0 0 301 20" fill="none" xmlns="http://www.w3.org/2000/svg">
<g opacity="0.5">
<path d="M100.124 7.01514H98.1734L103.05 12.9853H105L100.124 7.01514Z" fill="url(#paint0_linear_15322_73713)"/>
<path d="M95.2233 8.01025L95.248 7.01523L3.94775 7.01523L4.92299 8.01025L95.2233 8.01025Z" fill="url(#paint1_linear_15322_73713)"/>
<path d="M95.2479 7.01514H93.2974L98.1736 12.9853H100.124L95.2479 7.01514Z" fill="url(#paint2_linear_15322_73713)"/>
</g>
<path d="M117.232 1.199L129.221 0.629V3.498L124.908 3.707V5.455H129.221V8.324H124.908V9.711H128.898V18.09H117.384V9.711H121.393V8.324H117.232V5.455H121.393V3.878L117.232 4.068V1.199ZM111.76 18.09C112.368 15.506 112.856 12.8967 113.223 10.262H116.89C116.687 12.9093 116.295 15.5187 115.712 18.09H111.76ZM113.204 4.79C112.761 3.46 112.279 2.13633 111.76 0.819H115.351C115.959 2.12367 116.51 3.44733 117.004 4.79H113.204ZM113.204 9.388C112.761 8.058 112.279 6.73433 111.76 5.417H115.351C115.959 6.72167 116.51 8.04533 117.004 9.388H113.204ZM120.804 12.656V15.069H125.44V12.656H120.804ZM139.633 18.071L139.766 17.691H131.463C132.058 14.613 132.533 11.5097 132.888 8.381H131.577V5.588H139.652V8.381H136.042C135.89 10.5723 135.656 12.7447 135.339 14.898H136.878C136.777 13.112 136.675 11.326 136.574 9.54H139.386C139.627 12.086 139.81 14.6257 139.937 17.159C140.393 15.6643 140.729 14.1317 140.944 12.561C141.185 10.547 141.299 8.52667 141.286 6.5V5.132H139.747V2.244H141.286V0.609999H144.592V2.244H148.715V12.713C148.702 13.7643 148.614 14.803 148.449 15.829C148.322 16.589 148.12 17.3363 147.841 18.071H144.003C144.535 17.273 144.921 16.418 145.162 15.506C145.377 14.594 145.485 13.663 145.485 12.713V5.132H144.592V6.5C144.605 8.704 144.491 10.8953 144.25 13.074C144.06 14.7713 143.705 16.437 143.186 18.071H139.633ZM131.824 1.351H139.329V4.106H131.824V1.351ZM168.741 18.09H163.896V15.392C163.491 16.342 162.997 17.2413 162.414 18.09H156.239C156.15 16.7727 156.03 15.4617 155.878 14.157C155.688 14.879 155.479 15.5757 155.251 16.247C155.048 16.8803 154.808 17.4947 154.529 18.09H151.147C152.3 15.7973 153.047 13.378 153.389 10.832H151.394V8.134H153.503V5.512H151.66V2.852H153.503V0.629H156.619V2.852H158.576V5.512H156.619V8.134H158.728V10.832H156.505C156.467 11.1993 156.416 11.5603 156.353 11.915H158.139C158.506 13.853 158.829 15.7973 159.108 17.748C160.083 16.532 160.888 15.2083 161.521 13.777C162.078 12.4977 162.37 11.155 162.395 9.749V4.22H165.036V9.901C165.023 10.661 164.954 11.4147 164.827 12.162H165.758V3.536H161.73V12.428H158.994V0.913999H168.475V12.428H166.423V15.43H168.741V18.09ZM178.07 12.58V3.916H174.194V12.58H171.477V1.142H180.825V12.58H178.07ZM177.557 18.09C177.329 17.0007 177.057 15.9367 176.74 14.898C176.347 16 175.853 17.064 175.258 18.09H171.173C172.136 16.912 172.94 15.639 173.586 14.271C173.903 13.5743 174.156 12.865 174.346 12.143C174.511 11.5223 174.606 10.8953 174.631 10.262V4.524H177.576V10.281C177.563 11.1803 177.462 12.0607 177.272 12.922H179.286C179.983 14.6067 180.546 16.3293 180.977 18.09H177.557ZM183.485 18.09C184.068 17.4313 184.498 16.6903 184.777 15.867C185.068 14.955 185.214 14.0113 185.214 13.036V0.609999H188.349V13.036C188.349 13.9733 188.279 14.9043 188.14 15.829C188.026 16.6017 187.811 17.3553 187.494 18.09H183.485ZM181.585 14.556V1.75H184.435V14.556H181.585Z" fill="white"/>
<path d="M117.232 1.199L129.221 0.629V3.498L124.908 3.707V5.455H129.221V8.324H124.908V9.711H128.898V18.09H117.384V9.711H121.393V8.324H117.232V5.455H121.393V3.878L117.232 4.068V1.199ZM111.76 18.09C112.368 15.506 112.856 12.8967 113.223 10.262H116.89C116.687 12.9093 116.295 15.5187 115.712 18.09H111.76ZM113.204 4.79C112.761 3.46 112.279 2.13633 111.76 0.819H115.351C115.959 2.12367 116.51 3.44733 117.004 4.79H113.204ZM113.204 9.388C112.761 8.058 112.279 6.73433 111.76 5.417H115.351C115.959 6.72167 116.51 8.04533 117.004 9.388H113.204ZM120.804 12.656V15.069H125.44V12.656H120.804ZM139.633 18.071L139.766 17.691H131.463C132.058 14.613 132.533 11.5097 132.888 8.381H131.577V5.588H139.652V8.381H136.042C135.89 10.5723 135.656 12.7447 135.339 14.898H136.878C136.777 13.112 136.675 11.326 136.574 9.54H139.386C139.627 12.086 139.81 14.6257 139.937 17.159C140.393 15.6643 140.729 14.1317 140.944 12.561C141.185 10.547 141.299 8.52667 141.286 6.5V5.132H139.747V2.244H141.286V0.609999H144.592V2.244H148.715V12.713C148.702 13.7643 148.614 14.803 148.449 15.829C148.322 16.589 148.12 17.3363 147.841 18.071H144.003C144.535 17.273 144.921 16.418 145.162 15.506C145.377 14.594 145.485 13.663 145.485 12.713V5.132H144.592V6.5C144.605 8.704 144.491 10.8953 144.25 13.074C144.06 14.7713 143.705 16.437 143.186 18.071H139.633ZM131.824 1.351H139.329V4.106H131.824V1.351ZM168.741 18.09H163.896V15.392C163.491 16.342 162.997 17.2413 162.414 18.09H156.239C156.15 16.7727 156.03 15.4617 155.878 14.157C155.688 14.879 155.479 15.5757 155.251 16.247C155.048 16.8803 154.808 17.4947 154.529 18.09H151.147C152.3 15.7973 153.047 13.378 153.389 10.832H151.394V8.134H153.503V5.512H151.66V2.852H153.503V0.629H156.619V2.852H158.576V5.512H156.619V8.134H158.728V10.832H156.505C156.467 11.1993 156.416 11.5603 156.353 11.915H158.139C158.506 13.853 158.829 15.7973 159.108 17.748C160.083 16.532 160.888 15.2083 161.521 13.777C162.078 12.4977 162.37 11.155 162.395 9.749V4.22H165.036V9.901C165.023 10.661 164.954 11.4147 164.827 12.162H165.758V3.536H161.73V12.428H158.994V0.913999H168.475V12.428H166.423V15.43H168.741V18.09ZM178.07 12.58V3.916H174.194V12.58H171.477V1.142H180.825V12.58H178.07ZM177.557 18.09C177.329 17.0007 177.057 15.9367 176.74 14.898C176.347 16 175.853 17.064 175.258 18.09H171.173C172.136 16.912 172.94 15.639 173.586 14.271C173.903 13.5743 174.156 12.865 174.346 12.143C174.511 11.5223 174.606 10.8953 174.631 10.262V4.524H177.576V10.281C177.563 11.1803 177.462 12.0607 177.272 12.922H179.286C179.983 14.6067 180.546 16.3293 180.977 18.09H177.557ZM183.485 18.09C184.068 17.4313 184.498 16.6903 184.777 15.867C185.068 14.955 185.214 14.0113 185.214 13.036V0.609999H188.349V13.036C188.349 13.9733 188.279 14.9043 188.14 15.829C188.026 16.6017 187.811 17.3553 187.494 18.09H183.485ZM181.585 14.556V1.75H184.435V14.556H181.585Z" fill="url(#paint3_linear_15322_73713)"/>
<g opacity="0.5">
<path d="M200.876 7.01514H202.827L197.95 12.9853H196L200.876 7.01514Z" fill="url(#paint4_linear_15322_73713)"/>
<path d="M205.777 8.01025L205.752 7.01523L297.052 7.01523L296.077 8.01025L205.777 8.01025Z" fill="url(#paint5_linear_15322_73713)"/>
<path d="M205.752 7.01514H207.703L202.826 12.9853H200.876L205.752 7.01514Z" fill="url(#paint6_linear_15322_73713)"/>
</g>
<defs>
<linearGradient id="paint0_linear_15322_73713" x1="101.622" y1="7.01514" x2="101.622" y2="12.9853" gradientUnits="userSpaceOnUse">
<stop stop-color="white"/>
<stop offset="1" stop-color="white" stop-opacity="0"/>
</linearGradient>
<linearGradient id="paint1_linear_15322_73713" x1="96.2232" y1="10.5337" x2="-10.0771" y2="10.5372" gradientUnits="userSpaceOnUse">
<stop stop-color="white"/>
<stop offset="1" stop-color="white" stop-opacity="0"/>
</linearGradient>
<linearGradient id="paint2_linear_15322_73713" x1="96.7459" y1="7.01514" x2="96.7459" y2="12.9853" gradientUnits="userSpaceOnUse">
<stop stop-color="white"/>
<stop offset="1" stop-color="white" stop-opacity="0"/>
</linearGradient>
<linearGradient id="paint3_linear_15322_73713" x1="111" y1="2.86713" x2="121.824" y2="38.9032" gradientUnits="userSpaceOnUse">
<stop stop-color="#DFC191"/>
<stop offset="0.42544" stop-color="#FFF3CE"/>
<stop offset="1" stop-color="#BB9169"/>
</linearGradient>
<linearGradient id="paint4_linear_15322_73713" x1="199.378" y1="7.01514" x2="199.378" y2="12.9853" gradientUnits="userSpaceOnUse">
<stop stop-color="white"/>
<stop offset="1" stop-color="white" stop-opacity="0"/>
</linearGradient>
<linearGradient id="paint5_linear_15322_73713" x1="204.777" y1="10.5337" x2="311.077" y2="10.5372" gradientUnits="userSpaceOnUse">
<stop stop-color="white"/>
<stop offset="1" stop-color="white" stop-opacity="0"/>
</linearGradient>
<linearGradient id="paint6_linear_15322_73713" x1="204.254" y1="7.01514" x2="204.254" y2="12.9853" gradientUnits="userSpaceOnUse">
<stop stop-color="white"/>
<stop offset="1" stop-color="white" stop-opacity="0"/>
</linearGradient>
</defs>
</svg>
